<?xml version="1.0" encoding="UTF-8"?>
<svg width="700pt" height="700pt" version="1.1" viewBox="0 0 700 700" xmlns="http://www.w3.org/2000/svg" xmlns:xlink="http://www.w3.org/1999/xlink">
 <defs>
  <symbol id="d" overflow="visible">
   <path d="m31.219-31.969v-20.047h12.047v52.016h-12.047v-5.4219c-1.6484 2.2109-3.4648 3.8281-5.4531 4.8594-1.9805 1.0195-4.2734 1.5312-6.875 1.5312-4.6172 0-8.4062-1.832-11.375-5.5-2.9609-3.6641-4.4375-8.3828-4.4375-14.156 0-5.7695 1.4766-10.488 4.4375-14.156 2.9688-3.6641 6.7578-5.5 11.375-5.5 2.582 0 4.8672 0.52344 6.8594 1.5625 2 1.0312 3.8203 2.6367 5.4688 4.8125zm-7.8906 24.25c2.5703 0 4.5312-0.9375 5.875-2.8125s2.0156-4.5938 2.0156-8.1562-0.67188-6.2812-2.0156-8.1562-3.3047-2.8125-5.875-2.8125c-2.5312 0-4.4766 0.9375-5.8281 2.8125-1.3438 1.875-2.0156 4.5938-2.0156 8.1562s0.67188 6.2812 2.0156 8.1562c1.3516 1.875 3.2969 2.8125 5.8281 2.8125z"/>
  </symbol>
  <symbol id="c" overflow="visible">
   <path d="m25.672-7.7188c2.5625 0 4.5156-0.9375 5.8594-2.8125 1.3516-1.875 2.0312-4.5938 2.0312-8.1562s-0.67969-6.2812-2.0312-8.1562c-1.3438-1.875-3.2969-2.8125-5.8594-2.8125s-4.5312 0.94531-5.9062 2.8281c-1.3672 1.8867-2.0469 4.6016-2.0469 8.1406 0 3.543 0.67969 6.2578 2.0469 8.1406 1.375 1.8867 3.3438 2.8281 5.9062 2.8281zm-7.9531-24.25c1.6445-2.1758 3.4688-3.7812 5.4688-4.8125 2.0078-1.0391 4.3203-1.5625 6.9375-1.5625 4.6133 0 8.3984 1.8359 11.359 5.5 2.9688 3.668 4.4531 8.3867 4.4531 14.156 0 5.7734-1.4844 10.492-4.4531 14.156-2.9609 3.668-6.7461 5.5-11.359 5.5-2.6172 0-4.9297-0.51562-6.9375-1.5469-2-1.0391-3.8242-2.6562-5.4688-4.8438v5.4219h-11.969v-52.016h11.969z"/>
  </symbol>
  <symbol id="b" overflow="visible">
   <path d="m5.75-37.438h11.969v37.438h-11.969zm0-14.578h11.969v9.75h-11.969z"/>
  </symbol>
  <symbol id="a" overflow="visible">
   <path d="m5.75-52.016h11.969v52.016h-11.969z"/>
  </symbol>
 </defs>
 <g>
  <path d="m76.957 51.488h546.36l-0.003906 385.88h27.387v-385.88c0-7.2656-2.8828-14.23-8.0195-19.367-5.1367-5.1367-12.102-8.0195-19.367-8.0195h-546.36c-7.2656 0-14.23 2.8828-19.367 8.0195-5.1367 5.1367-8.0195 12.102-8.0195 19.367v385.88h27.387z"/>
  <path d="m0 460.91v56.965c0 7.2656 2.8867 14.23 8.0195 19.367 5.1367 5.1328 12.105 8.0195 19.367 8.0195h644.95c7.2617 0 14.23-2.8867 19.363-8.0195 5.1367-5.1367 8.0234-12.102 8.0234-19.367v-56.965zm672.34 57.238-644.95-0.27344v-29.578h645.09z"/>
  <path d="m589.5 403.27v-312.48h-478.99v181.57h44.094l24.648-80.516 23.961 109.82 41.355-177.88 20.949 150.9h43.273v13.691h-55.188l-12.461-89.551-38.34 165-25.742-118.04-12.324 40.258h-54.227v117.21z"/>
  <use x="255.8125" y="750.9375" xlink:href="#d"/>
  <use x="328.660156" y="750.9375" xlink:href="#c"/>
  <use x="530.078125" y="750.9375" xlink:href="#b"/>
  <use x="634.886719" y="750.9375" xlink:href="#b"/>
  <use x="658.351562" y="750.9375" xlink:href="#a"/>
  <use x="681.820312" y="750.9375" xlink:href="#a"/>
 </g>
</svg>
